<svg id="visual" viewBox="0 0 2560 1440" width="2560" height="1440" xmlns="http://www.w3.org/2000/svg" xmlns:xlink="http://www.w3.org/1999/xlink" version="1.1"><rect x="0" y="0" width="2560" height="1440" fill="#001122"></rect><path d="M0 990L427 826L853 1039L1280 1030L1707 917L2133 956L2560 942L2560 1441L2133 1441L1707 1441L1280 1441L853 1441L427 1441L0 1441Z" fill="#48b3f9"></path><path d="M0 997L427 1085L853 928L1280 923L1707 1097L2133 1111L2560 971L2560 1441L2133 1441L1707 1441L1280 1441L853 1441L427 1441L0 1441Z" fill="#2b9ced"></path><path d="M0 1154L427 1015L853 1109L1280 1079L1707 1059L2133 1152L2560 1047L2560 1441L2133 1441L1707 1441L1280 1441L853 1441L427 1441L0 1441Z" fill="#0a85df"></path><path d="M0 1148L427 1163L853 1187L1280 1247L1707 1139L2133 1266L2560 1283L2560 1441L2133 1441L1707 1441L1280 1441L853 1441L427 1441L0 1441Z" fill="#006ed0"></path><path d="M0 1300L427 1317L853 1348L1280 1242L1707 1339L2133 1299L2560 1328L2560 1441L2133 1441L1707 1441L1280 1441L853 1441L427 1441L0 1441Z" fill="#0057bf"></path></svg>